<?xml version="1.0" encoding="UTF-8"?>
<svg width="241px" height="242px" viewBox="0 0 241 242" version="1.1" xmlns="http://www.w3.org/2000/svg" xmlns:xlink="http://www.w3.org/1999/xlink">
    <!-- Generator: Sketch 57.1 (83088) - https://sketch.com -->
    <title>placeholder-user</title>
    <desc>Created with Sketch.</desc>
    <defs>
        <circle id="path-1" cx="125.5" cy="125.5" r="120.5"></circle>
        <path d="M150.23111,178.334466 C149.49565,170.237257 149.777744,164.586289 149.777744,157.187289 C153.455045,155.263449 160.043963,142.997082 161.157228,132.634463 C164.048695,132.398378 168.607541,129.585452 169.942452,118.479417 C170.6628,112.517019 167.801557,109.1616 166.058617,108.106752 C170.763548,93.9969144 180.536101,50.3463296 147.98443,45.8356017 C144.63456,39.9686416 136.055869,37 124.908106,37 C80.306976,37.8187624 74.927034,70.584328 84.7046252,108.106752 C82.9667226,109.1616 80.1054801,112.517019 80.8207907,118.479417 C82.1607388,129.585452 86.7145474,132.398378 89.6060143,132.634463 C90.7142421,142.992059 97.5651046,155.263449 101.252481,157.187289 C101.252481,164.586289 101.529537,170.237257 100.794077,178.334466 C94.4419173,195.362714 61.6623407,196.859593 42.8426185,213.280049 C62.5186985,233.035831 94.5628148,247 128.212639,247 C145.573193,247 165.051274,242.152309 180.216463,234.332854 C194.44584,226.995921 204.812863,216.779097 208,213.280049 C189.296138,196.7089 156.598382,195.422991 150.23111,178.334466 Z" id="path-3"></path>
    </defs>
    <g id="Page-1" stroke="none" stroke-width="1" fill="none" fill-rule="evenodd">
        <g id="Artboard" transform="translate(-5.000000, -35.000000)">
            <g id="placeholder-user" transform="translate(0.000000, 30.000000)">
                <rect id="Rectangle" x="0" y="0" width="251" height="251"></rect>
                <mask id="mask-2" fill="white">
                    <use xlink:href="#path-1"></use>
                </mask>
                <use id="Oval" fill="#898989" xlink:href="#path-1"></use>
                <mask id="mask-4" fill="white">
                    <use xlink:href="#path-3"></use>
                </mask>
                <use id="Path" fill="#FFFFFF" fill-rule="nonzero" xlink:href="#path-3"></use>
            </g>
        </g>
    </g>
</svg>